<?xml version="1.0" encoding="UTF-8"?>
<svg id="Layer_1" xmlns="http://www.w3.org/2000/svg" version="1.1" viewBox="0 0 610 444">
  <!-- Generator: Adobe Illustrator 30.0.0, SVG Export Plug-In . SVG Version: 2.1.1 Build 123)  -->
  <defs>
    <style>
      .st0 {
        fill: #fff;
      }

      .st1 {
        fill: #ffc303;
      }

      .st2 {
        fill: #101011;
      }
    </style>
  </defs>
  <path class="st1" d="M329.43,277.08l-8.13,13.74c-7.25,12.24-25.35,12.24-32.6,0l-8.13-13.74c-6.31-10.66-9.46-15.98-14.53-18.93-5.07-2.95-11.44-3.06-24.2-3.28-18.83-.32-30.64-1.48-40.54-5.58-18.38-7.61-32.98-22.21-40.59-40.59-5.71-13.78-5.71-31.26-5.71-66.2v-15c0-49.1,0-73.65,11.05-91.69,6.18-10.09,14.67-18.58,24.76-24.76C208.85,0,233.4,0,282.5,0h45c49.1,0,73.65,0,91.69,11.05,10.09,6.18,18.58,14.67,24.76,24.76,11.05,18.04,11.05,42.59,11.05,91.69v15c0,34.94,0,52.42-5.71,66.2-7.61,18.38-22.21,32.98-40.59,40.59-9.9,4.1-21.71,5.26-40.54,5.58-12.76.22-19.13.33-24.2,3.28-5.07,2.95-8.22,8.27-14.53,18.93Z"/>
  <path class="st2" d="M380,135c0,8.29-6.72,15-15,15s-15-6.71-15-15,6.71-15,15-15,15,6.72,15,15Z"/>
  <path class="st2" d="M320,135c0,8.29-6.71,15-15,15s-15-6.71-15-15,6.72-15,15-15,15,6.72,15,15Z"/>
  <path class="st2" d="M260,135c0,8.29-6.72,15-15,15s-15-6.71-15-15,6.72-15,15-15,15,6.72,15,15Z"/>
  <g>
    <path class="st0" d="M.3,307.34h38.23l6.96,48.15h.3l7.26-48.15h35.71v97.5h-28.15l1.19-61.79h-.59l-10.67,61.79h-17.19l-10.67-61.79h-.44l1.04,61.79H.3v-97.5Z"/>
    <path class="st0" d="M97.65,374.76c1.68-3.06,4.05-5.38,7.11-6.96,3.06-1.58,6.77-2.37,11.11-2.37h14.08v-7.71c0-1.97-.17-3.53-.52-4.67-.35-1.13-.89-1.97-1.63-2.52-.74-.54-1.75-.82-3.04-.82-1.88,0-3.19.59-3.93,1.78s-1.11,3.16-1.11,5.93c.2,1.48.25,3.01.15,4.59h-22.23c-.2-1.38-.3-3.36-.3-5.93,0-5.63,1.01-10.3,3.04-14,2.02-3.7,5.23-6.54,9.63-8.52,4.39-1.97,9.8-2.96,16.22-2.96s12.3,1.18,16.74,3.56c4.44,2.37,7.68,5.7,9.71,10,2.02,4.3,3.04,9.61,3.04,15.93v44.75h-25.78c.3-1.68.52-3.75.67-6.22.15-2.47.17-4.54.07-6.22h-.15c-.5,2.57-1.33,4.89-2.52,6.96-1.19,2.07-2.89,3.68-5.11,4.82-2.22,1.13-5.01,1.7-8.37,1.7-4.44,0-8.1-.89-10.96-2.67-2.87-1.78-4.99-4.2-6.37-7.26-1.38-3.06-2.07-6.47-2.07-10.22,0-4.25.84-7.9,2.52-10.96ZM126.91,388.25c.94-.59,1.68-1.6,2.22-3.04.54-1.43.81-3.23.81-5.41v-2.96h-6.52c-1.09,0-1.98.22-2.67.67-.69.44-1.24,1.16-1.63,2.15-.4.99-.59,2.17-.59,3.56,0,1.98.47,3.46,1.41,4.45.94.99,2.15,1.48,3.63,1.48,1.28,0,2.39-.3,3.33-.89Z"/>
    <path class="st0" d="M162.54,331.64h25.78l-.44,12.89h.15c.69-3.06,1.8-5.61,3.33-7.63,1.53-2.02,3.43-3.58,5.7-4.67,2.27-1.09,5.04-1.63,8.3-1.63,4.84,0,8.89,1.36,12.15,4.07,3.26,2.72,5.68,6.72,7.26,12,1.58,5.29,2.37,11.88,2.37,19.78,0,8.99-.87,16.37-2.59,22.15-1.73,5.78-4.27,10.1-7.63,12.96-3.36,2.87-7.46,4.3-12.3,4.3-3.06,0-5.7-.47-7.93-1.41-2.22-.94-4.05-2.32-5.48-4.15-1.43-1.83-2.54-4.07-3.33-6.74h-.15c.2,2.07.3,4.2.3,6.37.1,2.37.2,4.94.3,7.71v26.52h-25.78v-102.53ZM198.7,383.43c.89-1.13,1.56-3.04,2-5.71.44-2.67.67-5.98.67-9.93s-.22-6.99-.67-9.41c-.44-2.42-1.14-4.2-2.07-5.33-.94-1.13-2.05-1.7-3.33-1.7-1.58,0-2.87.54-3.85,1.63-.99,1.09-1.75,2.77-2.3,5.04-.54,2.27-.81,5.14-.81,8.59v6.52c0,2.77.3,5.01.89,6.74.59,1.73,1.41,3.04,2.44,3.93s2.25,1.33,3.63,1.33,2.52-.57,3.41-1.7Z"/>
    <path class="st0" d="M233.22,303.2h25.78v101.64h-25.78v-101.64Z"/>
    <path class="st0" d="M277.37,401.21c-4.54-3.11-7.78-7.36-9.71-12.74-1.93-5.38-2.89-11.93-2.89-19.63,0-8.99,1.21-16.27,3.63-21.86,2.42-5.58,5.93-9.71,10.52-12.37s10.25-4,16.97-4,11.83,1.21,15.93,3.63c4.1,2.42,7.21,6.1,9.33,11.04,2.12,4.94,3.19,11.41,3.19,19.41v7.26h-50.38l.44-11.71h28.15v-2.37c0-2.17-.2-4-.59-5.48-.4-1.48-1.01-2.57-1.85-3.26-.84-.69-1.85-1.04-3.04-1.04-1.58,0-2.82.57-3.7,1.7-.89,1.14-1.53,3.26-1.93,6.37-.4,3.11-.59,7.33-.59,12.67,0,4.54.17,8.25.52,11.11.35,2.87.99,4.84,1.93,5.93.94,1.09,2.2,1.63,3.78,1.63,1.28,0,2.3-.32,3.04-.96.74-.64,1.31-1.73,1.7-3.26.39-1.53.64-3.68.74-6.45h21.78c0,6.32-1.01,11.66-3.04,16-2.03,4.35-5.16,7.61-9.41,9.78-4.25,2.17-9.68,3.26-16.3,3.26-7.61,0-13.68-1.56-18.22-4.67Z"/>
    <path class="st0" d="M368.79,400.69c-5.04-3.65-8.72-9.11-11.04-16.37-2.32-7.26-3.48-16.67-3.48-28.23s1.23-21.14,3.7-28.45c2.47-7.31,6.22-12.74,11.26-16.3,5.04-3.56,11.51-5.33,19.41-5.33s14.05,1.43,18.74,4.3c4.69,2.87,8.15,7.06,10.37,12.59,2.22,5.53,3.33,12.4,3.33,20.6-.1,3.16-.2,6.22-.3,9.19h-22.82c.1-2.67.15-5.33.15-8,0-3.65-.25-6.57-.74-8.74-.5-2.17-1.21-3.73-2.15-4.67-.94-.94-2.25-1.41-3.93-1.41-2.08,0-3.73.79-4.96,2.37-1.24,1.58-2.12,4.27-2.67,8.08-.54,3.8-.82,9.06-.82,15.78s.27,12.13.82,15.93c.54,3.8,1.46,6.47,2.74,8,1.28,1.53,2.91,2.3,4.89,2.3,1.58,0,2.89-.47,3.93-1.41,1.04-.94,1.8-2.44,2.3-4.52.49-2.07.74-4.99.74-8.74-.1-2.27-.2-4.39-.3-6.37h22.97c.1,2.17.15,4.54.15,7.11,0,8.2-1.09,15.11-3.26,20.74-2.17,5.63-5.68,9.88-10.52,12.74-4.84,2.87-11.11,4.3-18.82,4.3-8.1,0-14.67-1.83-19.71-5.48Z"/>
    <path class="st0" d="M427.47,303.2h25.78v29.04c-.1,3.16-.35,9.04-.74,17.63h.44c.2-.59.3-1.19.3-1.78,1.28-5.43,3.46-9.71,6.52-12.82,3.06-3.11,7.36-4.67,12.89-4.67,6.52,0,11.31,2.2,14.37,6.59,3.06,4.4,4.59,10.89,4.59,19.48v48.16h-25.78v-41.93c0-1.88-.2-3.41-.59-4.59-.4-1.19-.99-2.05-1.78-2.59-.79-.54-1.83-.81-3.11-.81-1.48,0-2.74.44-3.78,1.33s-1.85,2.22-2.44,4c-.59,1.78-.89,4.1-.89,6.96v37.63h-25.78v-101.64Z"/>
    <path class="st0" d="M499.77,374.76c1.68-3.06,4.05-5.38,7.11-6.96,3.06-1.58,6.76-2.37,11.11-2.37h14.08v-7.71c0-1.97-.17-3.53-.52-4.67-.35-1.13-.89-1.97-1.63-2.52-.74-.54-1.75-.82-3.04-.82-1.88,0-3.19.59-3.93,1.78-.74,1.19-1.11,3.16-1.11,5.93.2,1.48.25,3.01.15,4.59h-22.23c-.2-1.38-.3-3.36-.3-5.93,0-5.63,1.01-10.3,3.04-14,2.02-3.7,5.23-6.54,9.63-8.52,4.39-1.97,9.8-2.96,16.22-2.96s12.3,1.18,16.74,3.56c4.45,2.37,7.68,5.7,9.71,10,2.02,4.3,3.04,9.61,3.04,15.93v44.75h-25.78c.3-1.68.52-3.75.67-6.22.15-2.47.17-4.54.07-6.22h-.15c-.5,2.57-1.33,4.89-2.52,6.96s-2.89,3.68-5.11,4.82c-2.22,1.13-5.01,1.7-8.37,1.7-4.45,0-8.1-.89-10.96-2.67-2.87-1.78-4.99-4.2-6.37-7.26-1.38-3.06-2.07-6.47-2.07-10.22,0-4.25.84-7.9,2.52-10.96ZM529.04,388.25c.94-.59,1.68-1.6,2.22-3.04.54-1.43.81-3.23.81-5.41v-2.96h-6.52c-1.09,0-1.98.22-2.67.67-.69.44-1.24,1.16-1.63,2.15-.4.99-.59,2.17-.59,3.56,0,1.98.47,3.46,1.41,4.45.94.99,2.15,1.48,3.63,1.48,1.28,0,2.39-.3,3.33-.89Z"/>
    <path class="st0" d="M575.19,398.69c-4.05-4.59-6.08-11.43-6.08-20.52v-24.45h-7.26v-22.08h5.78c1.68,0,2.94-.52,3.78-1.56.84-1.04,1.46-2.99,1.85-5.85l.59-9.19h21.19v16.6h14.82v22.08h-14.82v22.23c0,1.98.22,3.56.67,4.74.44,1.19,1.21,1.98,2.3,2.37,1.09.4,2.62.59,4.59.59h3.56c1.09,0,2.02-.1,2.82-.3v20.89c-1.09.4-2.92.72-5.48.96-2.57.25-5.38.37-8.45.37-9.19,0-15.81-2.3-19.85-6.89Z"/>
  </g>
</svg>