<svg xmlns="http://www.w3.org/2000/svg" version="1.1" xmlns:xlink="http://www.w3.org/1999/xlink" xmlns:svgjs="http://svgjs.dev/svgjs" width="1440" height="560" preserveAspectRatio="none" viewBox="0 0 1440 560"><g mask="url(&quot;#SvgjsMask1000&quot;)" fill="none"><rect width="1440" height="560" x="0" y="0" fill="#0e2a47"></rect><path d="M -177.11482468432337,371 C -81.11,318 110.89,107.8 302.88517531567663,106 C 494.89,104.2 590.89,328.2 782.8851753156766,362 C 974.89,395.8 1070.89,260 1262.8851753156766,275 C 1454.89,290 1707.46,439.4 1742.8851753156766,437 C 1778.31,434.6 1500.58,297.8 1440,263" stroke="rgba(51, 121, 194, 0.58)" stroke-width="2"></path><path d="M -328.6350620183937,201 C -232.64,249.4 -40.64,440.6 151.36493798160635,443 C 343.36,445.4 439.36,240.4 631.3649379816063,213 C 823.36,185.6 919.36,292.8 1111.3649379816063,306 C 1303.36,319.2 1525.64,256 1591.3649379816063,279 C 1657.09,302 1470.27,392.6 1440,421" stroke="rgba(51, 121, 194, 0.58)" stroke-width="2"></path><path d="M -530.7491310189944,232 C -434.75,255 -242.75,345 -50.74913101899439,347 C 141.25,349 237.25,244.8 429.2508689810056,242 C 621.25,239.2 717.25,334.4 909.2508689810056,333 C 1101.25,331.6 1283.1,237.2 1389.2508689810056,235 C 1495.4,232.8 1429.85,304.6 1440,322" stroke="rgba(51, 121, 194, 0.58)" stroke-width="2"></path><path d="M -78.06059524344414,255 C 17.94,296.4 209.94,499.8 401.93940475655586,462 C 593.94,424.2 689.94,81.8 881.9394047565559,66 C 1073.94,50.2 1169.94,383.8 1361.9394047565559,383 C 1553.94,382.2 1826.33,42 1841.9394047565559,62 C 1857.55,82 1520.39,398.8 1440,483" stroke="rgba(51, 121, 194, 0.58)" stroke-width="2"></path></g><defs><mask id="SvgjsMask1000"><rect width="1440" height="560" fill="#ffffff"></rect></mask></defs></svg>